<?xml version="1.0" encoding="utf-8"?>
<svg xmlns="http://www.w3.org/2000/svg" height="45px" width="45px" viewBox="0 0 20 20">
<svg version="1.1" id="Layer_1" xmlns="http://www.w3.org/2000/svg" xmlns:xlink="http://www.w3.org/1999/xlink" x="0px" y="0px"
	 viewBox="0 0 40 40" style="enable-background:new 0 0 40 40;" xml:space="preserve">
<style type="text/css">
	.st0{fill:#0086E9;}
	.st1{fill:#333333;}
</style>
<path class="st0" d="M29.5,16.3c-0.1,0.2-0.2,0.4-0.3,0.5c0,0,0,0.1,0,0.1l-0.3,0.5l-2.5,4.3L26,22.3l-0.3,0.5l-2.6,4.6L20.6,23
	l0.1-0.2l0.3-0.5l0.3-0.5l2.5-4.3l0.3-0.5l0.3-0.5l0.9-1.5c1.1-2,1.1-4.3,0-6.2c-1.1-2-3.2-3.1-5.4-3.1c-2.3,0-4.3,1.2-5.4,3.1
	c-1.1,2-1.1,4.3,0,6.2l0.9,1.5h-5c-1.6-3.2-1.5-6.9,0.3-10C12.7,3,16.1,1.1,20,1.1c3.8,0,7.3,2,9.2,5.3C30.9,9.5,31,13.1,29.5,16.3z
	"/>
<path class="st1" d="M22.6,17.4l-2.5,4.3h-9.6c-2.3,0-4.3,1.2-5.4,3.1c-0.6,1-0.8,2.1-0.8,3.1s0.3,2.1,0.8,3.1
	c1.1,2,3.1,3.1,5.4,3.1c2.3,0,4.3-1.2,5.4-3.1l0.9-1.5l2.5,4.3c0,0,0,0,0,0.1c-2,3-5.2,4.7-8.8,4.7c-3.8,0-7.3-2-9.2-5.3
	c-1.9-3.3-1.9-7.3,0-10.6c1.8-3.1,4.9-5,8.5-5.3h0c0.2,0,0.4,0,0.6,0H22.6z"/>
<path class="st1" d="M38.6,33.3c-1.9,3.3-5.3,5.3-9.2,5.3c-3.6,0-6.8-1.7-8.8-4.7l0-0.1c0,0,0,0,0,0.1c-0.1-0.2-0.2-0.3-0.3-0.5
	c0,0,0,0,0,0c0,0,0,0,0-0.1L20,32.8l-2.5-4.3l-0.3-0.5l-0.3-0.5h0l-2.6-4.6h5l0.1,0.2l0.3,0.5l0.3,0.5l2.5,4.3l0.3,0.5h0l0.3,0.5
	l0.9,1.5c1.1,2,3.1,3.1,5.4,3.1c2.3,0,4.3-1.2,5.4-3.1c1.1-2,1.1-4.3,0-6.2c-1.1-2-3.1-3.1-5.4-3.1h-1.8l2.5-4.3c0,0,0,0,0,0
	c3.5,0.2,6.7,2.2,8.5,5.3C40.5,26,40.5,30,38.6,33.3z"/>
</svg>
</svg>