<?xml version="1.0" encoding="utf-8"?>
<svg xmlns="http://www.w3.org/2000/svg" height="20px" width="20px" viewBox="0 0 20 20">
<svg version="1.1" id="Layer_1" xmlns="http://www.w3.org/2000/svg" xmlns:xlink="http://www.w3.org/1999/xlink" x="0px" y="0px"
	 viewBox="0 0 20 20" style="enable-background:new 0 0 20 20;" xml:space="preserve">
<style type="text/css">
	.st0{fill:#231F20;}
	.st1{fill-rule:evenodd;clip-rule:evenodd;}
	.st2{fill-rule:evenodd;clip-rule:evenodd;fill:#6C6C6C;}
	.st3{fill:#6C6C6C;}
	.st4{fill:#676767;}
</style>
<path class="st2" d="M2,13v2c-0.5,0-1-0.5-1-1S1.5,13,2,13z"/>
<path class="st2" d="M20,18v2H0V0h2v13c-0.5,0-1,0.5-1,1s0.5,1,1,1v3H20z"/>
<g>
	<path class="st3" d="M19.2,6.2l-5,6c-0.4,0.4-1,0.4-1.4,0l-3.1-2.1l-2.8,4.5C6.7,14.8,6.3,15,6,15H2c-0.5,0-1-0.5-1-1s0.5-1,1-1
		h3.5l3.2-5C9,7.4,9.8,7.3,10.2,7.8l3.3,2.3l4.3-5.3c0.4-0.4,1-0.4,1.4,0C19.6,5.2,19.6,5.8,19.2,6.2z"/>
</g>
</svg>
</svg>