<?xml version="1.0" encoding="utf-8"?>
<svg xmlns="http://www.w3.org/2000/svg" height="20px" width="20px" viewBox="0 0 20 20">
<svg version="1.1" id="Layer_2_1_" xmlns="http://www.w3.org/2000/svg" xmlns:xlink="http://www.w3.org/1999/xlink" x="0px" y="0px"
	 viewBox="0 0 20 20" style="enable-background:new 0 0 20 20;" xml:space="preserve">
<style type="text/css">
	.st0{fill:#6C6C6C;}
</style>
<path id="Fill-1" class="st0" d="M10.8,1.7v7.5l5.9-4.5C15.2,3,13.1,1.9,10.8,1.7L10.8,1.7z M9.2,3.4C5.5,3.8,2.6,7,2.6,10.8
	c0,4.1,3.3,7.5,7.4,7.5s7.4-3.4,7.4-7.5c0-1.4-0.4-2.7-1-3.8l-7.2,5.5V3.4z M10,20c-5,0-9-4.1-9-9.2C1,6,4.6,2.1,9.2,1.7V0H10
	c3.3,0,6.5,1.6,8.5,4.3L19,5l-1.3,1c0.8,1.5,1.3,3.1,1.3,4.8C19,15.9,15,20,10,20L10,20z"/>
</svg>
</svg>